<?xml version="1.0" encoding="us-ascii" standalone="no"?><svg xmlns="http://www.w3.org/2000/svg" xmlns:xlink="http://www.w3.org/1999/xlink" contentStyleType="text/css" height="520px" preserveAspectRatio="none" style="width:894px;height:520px;background:#FFFFFF;" version="1.1" viewBox="0 0 894 520" width="894px" zoomAndPan="magnify"><defs/><g><!--entity UserInterface--><g id="elem_UserInterface"><rect fill="#F1F1F1" height="36.2969" rx="2.5" ry="2.5" style="stroke:#181818;stroke-width:0.5;" width="117" x="398.5" y="120"/><text fill="#000000" font-family="sans-serif" font-size="14" lengthAdjust="spacing" textLength="97" x="408.5" y="142.9951">UserInterface</text></g><!--entity Authentication--><g id="elem_Authentication"><rect fill="#F1F1F1" height="36.2969" rx="2.5" ry="2.5" style="stroke:#181818;stroke-width:0.5;" width="128" x="38" y="233"/><text fill="#000000" font-family="sans-serif" font-size="14" lengthAdjust="spacing" textLength="108" x="48" y="255.9951">Authentication</text></g><!--entity PostManagement--><g id="elem_PostManagement"><rect fill="#F1F1F1" height="36.2969" rx="2.5" ry="2.5" style="stroke:#181818;stroke-width:0.5;" width="146" x="201" y="233"/><text fill="#000000" font-family="sans-serif" font-size="14" lengthAdjust="spacing" textLength="126" x="211" y="255.9951">PostManagement</text></g><!--entity SocialInteractions--><g id="elem_SocialInteractions"><rect fill="#F1F1F1" height="36.2969" rx="2.5" ry="2.5" style="stroke:#181818;stroke-width:0.5;" width="149" x="382.5" y="233"/><text fill="#000000" font-family="sans-serif" font-size="14" lengthAdjust="spacing" textLength="129" x="392.5" y="255.9951">SocialInteractions</text></g><!--entity MessagingSystem--><g id="elem_MessagingSystem"><rect fill="#F1F1F1" height="36.2969" rx="2.5" ry="2.5" style="stroke:#181818;stroke-width:0.5;" width="148" x="567" y="233"/><text fill="#000000" font-family="sans-serif" font-size="14" lengthAdjust="spacing" textLength="128" x="577" y="255.9951">MessagingSystem</text></g><!--entity BlockchainInteractions--><g id="elem_BlockchainInteractions"><rect fill="#F1F1F1" height="36.2969" rx="2.5" ry="2.5" style="stroke:#181818;stroke-width:0.5;" width="185" x="626.5" y="299"/><text fill="#000000" font-family="sans-serif" font-size="14" lengthAdjust="spacing" textLength="165" x="636.5" y="321.9951">BlockchainInteractions</text></g><!--entity DecentralizedStorage--><g id="elem_DecentralizedStorage"><rect fill="#F1F1F1" height="36.2969" rx="2.5" ry="2.5" style="stroke:#181818;stroke-width:0.5;" width="178" x="7" y="365"/><text fill="#000000" font-family="sans-serif" font-size="14" lengthAdjust="spacing" textLength="158" x="17" y="387.9951">DecentralizedStorage</text></g><!--entity DatabaseManagement--><g id="elem_DatabaseManagement"><rect fill="#F1F1F1" height="36.2969" rx="2.5" ry="2.5" style="stroke:#181818;stroke-width:0.5;" width="182" x="220" y="365"/><text fill="#000000" font-family="sans-serif" font-size="14" lengthAdjust="spacing" textLength="162" x="230" y="387.9951">DatabaseManagement</text></g><!--entity ExternalInteractions--><g id="elem_ExternalInteractions"><rect fill="#F1F1F1" height="36.2969" rx="2.5" ry="2.5" style="stroke:#181818;stroke-width:0.5;" width="167" x="308.5" y="478"/><text fill="#000000" font-family="sans-serif" font-size="14" lengthAdjust="spacing" textLength="147" x="318.5" y="500.9951">ExternalInteractions</text></g><!--entity ExternalEntities--><g id="elem_ExternalEntities"><rect fill="#F1F1F1" height="36.2969" rx="2.5" ry="2.5" style="stroke:#181818;stroke-width:0.5;" width="136" x="389" y="7"/><text fill="#000000" font-family="sans-serif" font-size="14" lengthAdjust="spacing" textLength="116" x="399" y="29.9951">ExternalEntities</text></g><!--link UserInterface to Authentication--><g id="link_UserInterface_Authentication"><path d="M398.348,139.358 C339.055,141.82 246.131,151.547 174,186 C150.759,197.101 133.4228,213.5319 120.1118,228.4289 " fill="none" id="UserInterface-to-Authentication" style="stroke:#181818;stroke-width:1.0;"/><polygon fill="#181818" points="116.114,232.903,125.0934,228.857,119.4455,229.1746,119.1279,223.5266,116.114,232.903" style="stroke:#181818;stroke-width:1.0;"/><text fill="#000000" font-family="sans-serif" font-size="13" lengthAdjust="spacing" textLength="126" x="175" y="199.0669">User Authentication</text></g><!--link UserInterface to PostManagement--><g id="link_UserInterface_PostManagement"><path d="M398.344,153.286 C375.119,160.69 349.007,171.328 328,186 C310.003,198.57 297.8248,213.6178 288.0938,227.9158 " fill="none" id="UserInterface-to-PostManagement" style="stroke:#181818;stroke-width:1.0;"/><polygon fill="#181818" points="284.718,232.876,293.0886,227.6862,287.5312,228.7425,286.475,223.1851,284.718,232.876" style="stroke:#181818;stroke-width:1.0;"/><text fill="#000000" font-family="sans-serif" font-size="13" lengthAdjust="spacing" textLength="116" x="329" y="199.0669">Post Management</text></g><!--link UserInterface to SocialInteractions--><g id="link_UserInterface_SocialInteractions"><path d="M455.466,156.108 C454.489,168.995 453.493,187.102 454,203 C454.313,212.807 454.5632,217.7623 455.1962,226.6183 " fill="none" id="UserInterface-to-SocialInteractions" style="stroke:#181818;stroke-width:1.0;"/><polygon fill="#181818" points="455.624,232.603,458.9722,223.3407,455.2675,227.6157,450.9925,223.9111,455.624,232.603" style="stroke:#181818;stroke-width:1.0;"/><text fill="#000000" font-family="sans-serif" font-size="13" lengthAdjust="spacing" textLength="116" x="455" y="199.0669">Social Interactions</text></g><!--link UserInterface to MessagingSystem--><g id="link_UserInterface_MessagingSystem"><path d="M513.462,156.035 C534.038,163.573 556.917,173.582 576,186 C595.911,198.957 610.877,214.1657 623.11,228.2967 " fill="none" id="UserInterface-to-MessagingSystem" style="stroke:#181818;stroke-width:1.0;"/><polygon fill="#181818" points="627.037,232.833,624.1707,223.4105,623.7645,229.0527,618.1222,228.6465,627.037,232.833" style="stroke:#181818;stroke-width:1.0;"/><text fill="#000000" font-family="sans-serif" font-size="13" lengthAdjust="spacing" textLength="120" x="599" y="199.0669">Messaging System</text></g><!--link UserInterface to BlockchainInteractions--><g id="link_UserInterface_BlockchainInteractions"><path d="M515.803,141.049 C586.799,144.856 700.169,155.641 728,186 C756.283,216.851 741.3368,265.4819 729.5678,293.1459 " fill="none" id="UserInterface-to-BlockchainInteractions" style="stroke:#181818;stroke-width:1.0;"/><polygon fill="#181818" points="727.219,298.667,734.423,291.9512,729.1764,294.0661,727.0615,288.8194,727.219,298.667" style="stroke:#181818;stroke-width:1.0;"/><text fill="#000000" font-family="sans-serif" font-size="13" lengthAdjust="spacing" textLength="146" x="740" y="199.0669">Blockchain Interactions</text></g><!--link PostManagement to DecentralizedStorage--><g id="link_PostManagement_DecentralizedStorage"><path d="M200.939,264.092 C177.041,271.033 151.827,281.926 133,299 C113.6,316.593 105.204,340.4351 100.7124,359.1271 " fill="none" id="PostManagement-to-DecentralizedStorage" style="stroke:#181818;stroke-width:1.0;"/><polygon fill="#181818" points="99.3105,364.961,105.3026,357.1447,100.4787,360.0994,97.524,355.2755,99.3105,364.961" style="stroke:#181818;stroke-width:1.0;"/><text fill="#000000" font-family="sans-serif" font-size="13" lengthAdjust="spacing" textLength="142" x="134" y="321.5669">Decentralized Storage</text></g><!--link PostManagement to DatabaseManagement--><g id="link_PostManagement_DatabaseManagement"><path d="M277.587,269.317 C281.224,286.211 287.264,312.571 294,335 C296.995,344.972 298.8032,350.3081 302.1252,359.1281 " fill="none" id="PostManagement-to-DatabaseManagement" style="stroke:#181818;stroke-width:1.0;"/><polygon fill="#181818" points="304.24,364.743,304.811,354.9107,302.4776,360.0639,297.3245,357.7305,304.24,364.743" style="stroke:#181818;stroke-width:1.0;"/><text fill="#000000" font-family="sans-serif" font-size="13" lengthAdjust="spacing" textLength="150" x="295" y="321.5669">Database Management</text></g><!--link PostManagement to ExternalInteractions--><g id="link_PostManagement_ExternalInteractions"><path d="M347.472,267.236 C392.73,277.365 443.354,290.346 450,299 C470.168,325.26 464.25,418.112 450,448 C444.199,460.1669 438.4105,466.7023 427.7975,474.3333 " fill="none" id="PostManagement-to-ExternalInteractions" style="stroke:#181818;stroke-width:1.0;"/><polygon fill="#181818" points="422.926,477.836,432.5683,475.8296,426.9855,474.9171,427.8981,469.3343,422.926,477.836" style="stroke:#181818;stroke-width:1.0;"/><text fill="#000000" font-family="sans-serif" font-size="13" lengthAdjust="spacing" textLength="132" x="464" y="387.5669">External Interactions</text></g><!--link DecentralizedStorage to ExternalInteractions--><g id="link_DecentralizedStorage_ExternalInteractions"><path d="M109.73,401.181 C122.474,415.9221 142.78,436.5452 165,448 C209.268,470.8212 257.8355,481.7548 302.3455,487.7946 " fill="none" id="DecentralizedStorage-to-ExternalInteractions" style="stroke:#181818;stroke-width:1.0;"/><polygon fill="#181818" points="308.291,488.6014,299.9106,483.4276,303.3364,487.9291,298.8349,491.3549,308.291,488.6014" style="stroke:#181818;stroke-width:1.0;"/><text fill="#000000" font-family="sans-serif" font-size="13" lengthAdjust="spacing" textLength="132" x="166" y="444.0669">External Interactions</text></g><!--link DatabaseManagement to ExternalInteractions--><g id="link_DatabaseManagement_ExternalInteractions"><path d="M306.916,401.251 C304.667,414.8786 303.775,433.8862 312,448 C319.543,460.9436 326.9059,467.7937 339.9189,474.952 " fill="none" id="DatabaseManagement-to-ExternalInteractions" style="stroke:#181818;stroke-width:1.0;"/><polygon fill="#181818" points="345.176,477.8439,339.2183,470.0014,340.7951,475.434,335.3624,477.0108,345.176,477.8439" style="stroke:#181818;stroke-width:1.0;"/><text fill="#000000" font-family="sans-serif" font-size="13" lengthAdjust="spacing" textLength="132" x="313" y="444.0669">External Interactions</text></g><!--link BlockchainInteractions to ExternalInteractions--><g id="link_BlockchainInteractions_ExternalInteractions"><path d="M700.399,335.261 C680.246,353.327 646.589,381.698 614,401 C558.362,433.9533 494.6697,459.3457 448.4317,475.9049 " fill="none" id="BlockchainInteractions-to-ExternalInteractions" style="stroke:#181818;stroke-width:1.0;"/><polygon fill="#181818" points="442.783,477.9279,452.6047,478.6592,447.4902,476.2421,449.9074,471.1277,442.783,477.9279" style="stroke:#181818;stroke-width:1.0;"/><text fill="#000000" font-family="sans-serif" font-size="13" lengthAdjust="spacing" textLength="132" x="665" y="387.5669">External Interactions</text></g><!--link ExternalEntities to UserInterface--><g id="link_ExternalEntities_UserInterface"><path d="M457,43.344 C457,64.197 457,92.979 457,113.778 " fill="none" id="ExternalEntities-to-UserInterface" style="stroke:#181818;stroke-width:1.0;"/><polygon fill="#181818" points="457,119.778,461,110.778,457,114.778,453,110.778,457,119.778" style="stroke:#181818;stroke-width:1.0;"/><text fill="#000000" font-family="sans-serif" font-size="13" lengthAdjust="spacing" textLength="65" x="458" y="86.0669">User Input</text></g><!--SRC=[bP9DZi8m38NtFKKkm0LO80s21Giaf8e3U88f4SKP9KOQE3rkQI5_NNJxdhuN-paEDGCrBQgZHxSZHdS6ZPNxw3ztlY2nqS36Kc0ShESz43Hu4pymQgiDj7qMw0xoWRb7xw4nrDGFptWBd7LhzLLVmD04ka4j3pbepHDFDLidJuSsCFo2n-9Cst-9fCcfHdihYx91NrLH7MgnM2L5g6NVM5fFZiKr2TO9AXWoH_821NkBAbeWHvDwXVieQcWyXyhD2_irudUJdRgCqd4a8PBLUBGIdrslemSnhAl0beuhz2Z7irV5IMV75EQTdJ7H-_oLqk_RHyHt7hxhZlxk_080]--></g></svg>