<?xml version="1.0" encoding="us-ascii" standalone="no"?><svg xmlns="http://www.w3.org/2000/svg" xmlns:xlink="http://www.w3.org/1999/xlink" contentStyleType="text/css" height="275px" preserveAspectRatio="none" style="width:1507px;height:275px;background:#FFFFFF;" version="1.1" viewBox="0 0 1507 275" width="1507px" zoomAndPan="magnify"><defs/><g><!--entity UserInterface--><g id="elem_UserInterface"><rect fill="#F1F1F1" height="36.2969" rx="2.5" ry="2.5" style="stroke:#181818;stroke-width:0.5;" width="117" x="540.5" y="7"/><text fill="#000000" font-family="sans-serif" font-size="14" lengthAdjust="spacing" textLength="97" x="550.5" y="29.9951">UserInterface</text></g><!--entity UserInteraction--><g id="elem_UserInteraction"><rect fill="#F1F1F1" height="36.2969" rx="2.5" ry="2.5" style="stroke:#181818;stroke-width:0.5;" width="131" x="614.5" y="120"/><text fill="#000000" font-family="sans-serif" font-size="14" lengthAdjust="spacing" textLength="111" x="624.5" y="142.9951">UserInteraction</text></g><!--entity EthereumSmartContracts--><g id="elem_EthereumSmartContracts"><rect fill="#F1F1F1" height="36.2969" rx="2.5" ry="2.5" style="stroke:#181818;stroke-width:0.5;" width="206" x="7" y="233"/><text fill="#000000" font-family="sans-serif" font-size="14" lengthAdjust="spacing" textLength="186" x="17" y="255.9951">EthereumSmartContracts</text></g><!--entity IPFSInteractions--><g id="elem_IPFSInteractions"><rect fill="#F1F1F1" height="36.2969" rx="2.5" ry="2.5" style="stroke:#181818;stroke-width:0.5;" width="137" x="439.5" y="233"/><text fill="#000000" font-family="sans-serif" font-size="14" lengthAdjust="spacing" textLength="117" x="449.5" y="255.9951">IPFSInteractions</text></g><!--entity Database--><g id="elem_Database"><rect fill="#F1F1F1" height="36.2969" rx="2.5" ry="2.5" style="stroke:#181818;stroke-width:0.5;" width="88" x="809" y="233"/><text fill="#000000" font-family="sans-serif" font-size="14" lengthAdjust="spacing" textLength="68" x="819" y="255.9951">Database</text></g><!--entity ExternalSystems--><g id="elem_ExternalSystems"><rect fill="#F1F1F1" height="36.2969" rx="2.5" ry="2.5" style="stroke:#181818;stroke-width:0.5;" width="141" x="1089.5" y="233"/><text fill="#000000" font-family="sans-serif" font-size="14" lengthAdjust="spacing" textLength="121" x="1099.5" y="255.9951">ExternalSystems</text></g><!--entity ExternalEntities--><g id="elem_ExternalEntities"><rect fill="#F1F1F1" height="36.2969" rx="2.5" ry="2.5" style="stroke:#181818;stroke-width:0.5;" width="136" x="693" y="7"/><text fill="#000000" font-family="sans-serif" font-size="14" lengthAdjust="spacing" textLength="116" x="703" y="29.9951">ExternalEntities</text></g><!--link UserInterface to UserInteraction--><g id="link_UserInterface_UserInteraction"><path d="M597.698,43.078 C597.477,56.784 599.093,75.984 608,90 C616.006,102.599 623.5791,109.4736 636.1301,116.8936 " fill="none" id="UserInterface-to-UserInteraction" style="stroke:#181818;stroke-width:1.0;"/><polygon fill="#181818" points="641.295,119.947,635.5832,111.9235,636.9909,117.4025,631.512,118.8101,641.295,119.947" style="stroke:#181818;stroke-width:1.0;"/><text fill="#000000" font-family="sans-serif" font-size="13" lengthAdjust="spacing" textLength="108" x="609" y="86.0669">User Interactions</text></g><!--link UserInteraction to EthereumSmartContracts--><g id="link_UserInteraction_EthereumSmartContracts"><path d="M614.389,148.788 C556.707,157.648 470.567,171.4986 396,186 C322.331,200.3268 244.4495,218.0161 186.7165,231.6021 " fill="none" id="UserInteraction-to-EthereumSmartContracts" style="stroke:#181818;stroke-width:1.0;"/><polygon fill="#181818" points="180.876,232.9765,190.553,234.8085,185.7431,231.8312,188.7204,227.0213,180.876,232.9765" style="stroke:#181818;stroke-width:1.0;"/><text fill="#000000" font-family="sans-serif" font-size="13" lengthAdjust="spacing" textLength="177" x="397" y="199.0669">Smart Contract Interactions</text></g><!--link UserInteraction to IPFSInteractions--><g id="link_UserInteraction_IPFSInteractions"><path d="M653.295,156.177 C639.473,165.072 622.326,176.1125 607,186 C582.407,201.8661 559.4356,216.7173 539.5016,229.6141 " fill="none" id="UserInteraction-to-IPFSInteractions" style="stroke:#181818;stroke-width:1.0;"/><polygon fill="#181818" points="534.464,232.8733,544.1932,231.3429,538.662,230.1573,539.8476,224.6261,534.464,232.8733" style="stroke:#181818;stroke-width:1.0;"/><text fill="#000000" font-family="sans-serif" font-size="13" lengthAdjust="spacing" textLength="167" x="608" y="199.0669">Content Upload/Download</text></g><!--link UserInteraction to Database--><g id="link_UserInteraction_Database"><path d="M723.25,156.148 C741.399,164.141 762.345,174.4434 780,186 C800.871,199.6616 817.7204,214.7214 831.8404,228.5372 " fill="none" id="UserInteraction-to-Database" style="stroke:#181818;stroke-width:1.0;"/><polygon fill="#181818" points="836.129,232.7334,832.4936,223.5801,832.5552,229.2366,826.8987,229.2982,836.129,232.7334" style="stroke:#181818;stroke-width:1.0;"/><text fill="#000000" font-family="sans-serif" font-size="13" lengthAdjust="spacing" textLength="107" x="803" y="199.0669">User Data, Posts</text></g><!--link UserInteraction to ExternalSystems--><g id="link_UserInteraction_ExternalSystems"><path d="M745.674,150.719 C793.827,159.601 860.696,172.5408 919,186 C981.217,200.3626 1045.9611,217.8071 1094.5711,231.382 " fill="none" id="UserInteraction-to-ExternalSystems" style="stroke:#181818;stroke-width:1.0;"/><polygon fill="#181818" points="1100.35,232.9958,1092.7575,226.7225,1095.5343,231.6509,1090.6058,234.4277,1100.35,232.9958" style="stroke:#181818;stroke-width:1.0;"/><text fill="#000000" font-family="sans-serif" font-size="13" lengthAdjust="spacing" textLength="84" x="987" y="199.0669">API Requests</text></g><!--link EthereumSmartContracts to EthereumSmartContracts--><g id="link_EthereumSmartContracts_EthereumSmartContracts"><path d="M213.214,240.9501 C233.538,242.0992 248,245.4492 248,251 C248,256.5508 239.5284,259.562 219.2044,260.7112 " fill="none" id="EthereumSmartContracts-to-EthereumSmartContracts" style="stroke:#181818;stroke-width:1.0;"/><polygon fill="#181818" points="213.214,261.05,222.4255,264.5355,218.206,260.7677,221.9738,256.5482,213.214,261.05" style="stroke:#181818;stroke-width:1.0;"/><text fill="#000000" font-family="sans-serif" font-size="13" lengthAdjust="spacing" textLength="161" x="254" y="255.5669">Execute Smart Contracts</text></g><!--link IPFSInteractions to IPFSInteractions--><g id="link_IPFSInteractions_IPFSInteractions"><path d="M576.677,240.541 C596.339,240.9512 611.5,244.4375 611.5,251 C611.5,257.5625 602.3377,260.9237 582.6757,261.3338 " fill="none" id="IPFSInteractions-to-IPFSInteractions" style="stroke:#181818;stroke-width:1.0;"/><polygon fill="#181818" points="576.677,261.459,585.7585,265.2704,581.6759,261.3547,585.5916,257.2722,576.677,261.459" style="stroke:#181818;stroke-width:1.0;"/><text fill="#000000" font-family="sans-serif" font-size="13" lengthAdjust="spacing" textLength="167" x="617.5" y="255.5669">Upload/Download Content</text></g><!--link Database to Database--><g id="link_Database_Database"><path d="M897.269,240.6083 C916.023,239.8252 932,243.2891 932,251 C932,258.7109 922.0178,262.4252 903.2638,261.642 " fill="none" id="Database-to-Database" style="stroke:#181818;stroke-width:1.0;"/><polygon fill="#181818" points="897.269,261.3917,906.0943,265.7637,902.2646,261.6003,906.4281,257.7707,897.269,261.3917" style="stroke:#181818;stroke-width:1.0;"/><text fill="#000000" font-family="sans-serif" font-size="13" lengthAdjust="spacing" textLength="127" x="938" y="255.5669">Store/Retrieve Data</text></g><!--link ExternalSystems to ExternalSystems--><g id="link_ExternalSystems_ExternalSystems"><path d="M1230.5,240.5519 C1250.3,241.0095 1265.5,244.4922 1265.5,251 C1265.5,257.5078 1256.2984,260.8519 1236.4984,261.3095 " fill="none" id="ExternalSystems-to-ExternalSystems" style="stroke:#181818;stroke-width:1.0;"/><polygon fill="#181818" points="1230.5,261.4481,1239.59,265.2391,1235.4987,261.3326,1239.4052,257.2412,1230.5,261.4481" style="stroke:#181818;stroke-width:1.0;"/><text fill="#000000" font-family="sans-serif" font-size="13" lengthAdjust="spacing" textLength="223" x="1271.5" y="255.5669">Interactions with External Systems</text></g><!--link ExternalEntities to UserInteraction--><g id="link_ExternalEntities_UserInteraction"><path d="M751.702,43.116 C744.26,56.328 733.241,74.848 722,90 C714.306,100.371 708.871,106.7751 700.838,115.4011 " fill="none" id="ExternalEntities-to-UserInteraction" style="stroke:#181818;stroke-width:1.0;"/><polygon fill="#181818" points="696.749,119.792,705.8098,115.9317,700.1565,116.1329,699.9553,110.4797,696.749,119.792" style="stroke:#181818;stroke-width:1.0;"/><text fill="#000000" font-family="sans-serif" font-size="13" lengthAdjust="spacing" textLength="65" x="735" y="86.0669">User Input</text></g><!--SRC=[XPB1Ri8m38RlUGe_m13t7IPDKAJUAYeUmEj-85ARiCGTyFPhG45fQDajiV_VzcVPeH4sXnQqyt2b4RWzDr3kESwDQ6kIJ257EFHTtR6JbJKI93uHbDMcJgnfQit2N-pJHiLbK1fkwwiNT7uYKnZHek6L6WrBYyL7FYQzto8qQfzhWcyQOh3V0XGZ_nVAOOSImGmZj3krbh-NQtisuJ5fZmk9WuV_6rNMoypSusqDji-gf2r-UWIBck5wYLnSqFI23Dsh9xGPtempygi7MmPQYtLORY5Eu_T-4ohdccOTDJvhEJuq5CydFvhNLtBgvGy0]--></g></svg>