<?xml version="1.0" encoding="us-ascii" standalone="no"?><svg xmlns="http://www.w3.org/2000/svg" xmlns:xlink="http://www.w3.org/1999/xlink" contentStyleType="text/css" height="501px" preserveAspectRatio="none" style="width:2097px;height:501px;background:#FFFFFF;" version="1.1" viewBox="0 0 2097 501" width="2097px" zoomAndPan="magnify"><defs/><g><!--entity UserInterface--><g id="elem_UserInterface"><rect fill="#F1F1F1" height="36.2969" rx="2.5" ry="2.5" style="stroke:#181818;stroke-width:0.5;" width="117" x="922" y="120"/><text fill="#000000" font-family="sans-serif" font-size="14" lengthAdjust="spacing" textLength="97" x="932" y="142.9951">UserInterface</text></g><!--entity Authentication--><g id="elem_Authentication"><rect fill="#F1F1F1" height="36.2969" rx="2.5" ry="2.5" style="stroke:#181818;stroke-width:0.5;" width="128" x="209.5" y="233"/><text fill="#000000" font-family="sans-serif" font-size="14" lengthAdjust="spacing" textLength="108" x="219.5" y="255.9951">Authentication</text></g><!--entity IdentityVerification--><g id="elem_IdentityVerification"><rect fill="#F1F1F1" height="36.2969" rx="2.5" ry="2.5" style="stroke:#181818;stroke-width:0.5;" width="161" x="7" y="346"/><text fill="#000000" font-family="sans-serif" font-size="14" lengthAdjust="spacing" textLength="141" x="17" y="368.9951">IdentityVerification</text></g><!--entity UserRegistration--><g id="elem_UserRegistration"><rect fill="#F1F1F1" height="36.2969" rx="2.5" ry="2.5" style="stroke:#181818;stroke-width:0.5;" width="140" x="203.5" y="346"/><text fill="#000000" font-family="sans-serif" font-size="14" lengthAdjust="spacing" textLength="120" x="213.5" y="368.9951">UserRegistration</text></g><!--entity PostManagement--><g id="elem_PostManagement"><rect fill="#F1F1F1" height="36.2969" rx="2.5" ry="2.5" style="stroke:#181818;stroke-width:0.5;" width="146" x="907.5" y="233"/><text fill="#000000" font-family="sans-serif" font-size="14" lengthAdjust="spacing" textLength="126" x="917.5" y="255.9951">PostManagement</text></g><!--entity CreatePost--><g id="elem_CreatePost"><rect fill="#F1F1F1" height="36.2969" rx="2.5" ry="2.5" style="stroke:#181818;stroke-width:0.5;" width="101" x="379" y="346"/><text fill="#000000" font-family="sans-serif" font-size="14" lengthAdjust="spacing" textLength="81" x="389" y="368.9951">CreatePost</text></g><!--entity EditPost--><g id="elem_EditPost"><rect fill="#F1F1F1" height="36.2969" rx="2.5" ry="2.5" style="stroke:#181818;stroke-width:0.5;" width="81" x="515" y="346"/><text fill="#000000" font-family="sans-serif" font-size="14" lengthAdjust="spacing" textLength="61" x="525" y="368.9951">EditPost</text></g><!--entity SocialInteractions--><g id="elem_SocialInteractions"><rect fill="#F1F1F1" height="36.2969" rx="2.5" ry="2.5" style="stroke:#181818;stroke-width:0.5;" width="149" x="631" y="346"/><text fill="#000000" font-family="sans-serif" font-size="14" lengthAdjust="spacing" textLength="129" x="641" y="368.9951">SocialInteractions</text></g><!--entity LikesComments--><g id="elem_LikesComments"><rect fill="#F1F1F1" height="36.2969" rx="2.5" ry="2.5" style="stroke:#181818;stroke-width:0.5;" width="136" x="499.5" y="459"/><text fill="#000000" font-family="sans-serif" font-size="14" lengthAdjust="spacing" textLength="116" x="509.5" y="481.9951">LikesComments</text></g><!--entity SharePost--><g id="elem_SharePost"><rect fill="#F1F1F1" height="36.2969" rx="2.5" ry="2.5" style="stroke:#181818;stroke-width:0.5;" width="93" x="674" y="459"/><text fill="#000000" font-family="sans-serif" font-size="14" lengthAdjust="spacing" textLength="73" x="684" y="481.9951">SharePost</text></g><!--entity MessagingSystem--><g id="elem_MessagingSystem"><rect fill="#F1F1F1" height="36.2969" rx="2.5" ry="2.5" style="stroke:#181818;stroke-width:0.5;" width="148" x="815.5" y="346"/><text fill="#000000" font-family="sans-serif" font-size="14" lengthAdjust="spacing" textLength="128" x="825.5" y="368.9951">MessagingSystem</text></g><!--entity DirectMessages--><g id="elem_DirectMessages"><rect fill="#F1F1F1" height="36.2969" rx="2.5" ry="2.5" style="stroke:#181818;stroke-width:0.5;" width="133" x="817" y="459"/><text fill="#000000" font-family="sans-serif" font-size="14" lengthAdjust="spacing" textLength="113" x="827" y="481.9951">DirectMessages</text></g><!--entity BlockchainInteractions--><g id="elem_BlockchainInteractions"><rect fill="#F1F1F1" height="36.2969" rx="2.5" ry="2.5" style="stroke:#181818;stroke-width:0.5;" width="185" x="999" y="346"/><text fill="#000000" font-family="sans-serif" font-size="14" lengthAdjust="spacing" textLength="165" x="1009" y="368.9951">BlockchainInteractions</text></g><!--entity ExecuteSmartContracts--><g id="elem_ExecuteSmartContracts"><rect fill="#F1F1F1" height="36.2969" rx="2.5" ry="2.5" style="stroke:#181818;stroke-width:0.5;" width="193" x="985" y="459"/><text fill="#000000" font-family="sans-serif" font-size="14" lengthAdjust="spacing" textLength="173" x="995" y="481.9951">ExecuteSmartContracts</text></g><!--entity DecentralizedStorage--><g id="elem_DecentralizedStorage"><rect fill="#F1F1F1" height="36.2969" rx="2.5" ry="2.5" style="stroke:#181818;stroke-width:0.5;" width="178" x="1294.5" y="346"/><text fill="#000000" font-family="sans-serif" font-size="14" lengthAdjust="spacing" textLength="158" x="1304.5" y="368.9951">DecentralizedStorage</text></g><!--entity UploadContent--><g id="elem_UploadContent"><rect fill="#F1F1F1" height="36.2969" rx="2.5" ry="2.5" style="stroke:#181818;stroke-width:0.5;" width="129" x="1220" y="459"/><text fill="#000000" font-family="sans-serif" font-size="14" lengthAdjust="spacing" textLength="109" x="1230" y="481.9951">UploadContent</text></g><!--entity DownloadContent--><g id="elem_DownloadContent"><rect fill="#F1F1F1" height="36.2969" rx="2.5" ry="2.5" style="stroke:#181818;stroke-width:0.5;" width="150" x="1397.5" y="459"/><text fill="#000000" font-family="sans-serif" font-size="14" lengthAdjust="spacing" textLength="130" x="1407.5" y="481.9951">DownloadContent</text></g><!--entity DatabaseManagement--><g id="elem_DatabaseManagement"><rect fill="#F1F1F1" height="36.2969" rx="2.5" ry="2.5" style="stroke:#181818;stroke-width:0.5;" width="182" x="1600.5" y="346"/><text fill="#000000" font-family="sans-serif" font-size="14" lengthAdjust="spacing" textLength="162" x="1610.5" y="368.9951">DatabaseManagement</text></g><!--entity StoreData--><g id="elem_StoreData"><rect fill="#F1F1F1" height="36.2969" rx="2.5" ry="2.5" style="stroke:#181818;stroke-width:0.5;" width="94" x="1651.5" y="459"/><text fill="#000000" font-family="sans-serif" font-size="14" lengthAdjust="spacing" textLength="74" x="1661.5" y="481.9951">StoreData</text></g><!--entity RetrieveData--><g id="elem_RetrieveData"><rect fill="#F1F1F1" height="36.2969" rx="2.5" ry="2.5" style="stroke:#181818;stroke-width:0.5;" width="116" x="1830.5" y="459"/><text fill="#000000" font-family="sans-serif" font-size="14" lengthAdjust="spacing" textLength="96" x="1840.5" y="481.9951">RetrieveData</text></g><!--entity ExternalInteractions--><g id="elem_ExternalInteractions"><rect fill="#F1F1F1" height="36.2969" rx="2.5" ry="2.5" style="stroke:#181818;stroke-width:0.5;" width="167" x="1478" y="233"/><text fill="#000000" font-family="sans-serif" font-size="14" lengthAdjust="spacing" textLength="147" x="1488" y="255.9951">ExternalInteractions</text></g><!--entity InteractionsWithSystems--><g id="elem_InteractionsWithSystems"><rect fill="#F1F1F1" height="36.2969" rx="2.5" ry="2.5" style="stroke:#181818;stroke-width:0.5;" width="202" x="1817.5" y="346"/><text fill="#000000" font-family="sans-serif" font-size="14" lengthAdjust="spacing" textLength="182" x="1827.5" y="368.9951">InteractionsWithSystems</text></g><!--entity ExternalEntities--><g id="elem_ExternalEntities"><rect fill="#F1F1F1" height="36.2969" rx="2.5" ry="2.5" style="stroke:#181818;stroke-width:0.5;" width="136" x="912.5" y="7"/><text fill="#000000" font-family="sans-serif" font-size="14" lengthAdjust="spacing" textLength="116" x="922.5" y="29.9951">ExternalEntities</text></g><!--link UserInterface to Authentication--><g id="link_UserInterface_Authentication"><path d="M921.74,148.225 C790.357,168.853 479.6304,217.6374 343.4514,239.0174 " fill="none" id="UserInterface-to-Authentication" style="stroke:#181818;stroke-width:1.0;"/><polygon fill="#181818" points="337.524,239.948,347.0355,242.5037,342.4635,239.1725,345.7947,234.6005,337.524,239.948" style="stroke:#181818;stroke-width:1.0;"/><text fill="#000000" font-family="sans-serif" font-size="13" lengthAdjust="spacing" textLength="126" x="670.5" y="199.0669">User Authentication</text></g><!--link Authentication to IdentityVerification--><g id="link_Authentication_IdentityVerification"><path d="M209.378,266.644 C186.02,273.931 160.271,284.393 139.5,299 C121.817,311.436 110.1577,326.4275 100.8981,340.7675 " fill="none" id="Authentication-to-IdentityVerification" style="stroke:#181818;stroke-width:1.0;"/><polygon fill="#181818" points="97.6434,345.808,105.8858,340.4171,100.3557,341.6076,99.1652,336.0774,97.6434,345.808" style="stroke:#181818;stroke-width:1.0;"/><text fill="#000000" font-family="sans-serif" font-size="13" lengthAdjust="spacing" textLength="124" x="140.5" y="312.0669">Identity Verification</text></g><!--link Authentication to UserRegistration--><g id="link_Authentication_UserRegistration"><path d="M273.5,269.344 C273.5,290.197 273.5,318.979 273.5,339.778 " fill="none" id="Authentication-to-UserRegistration" style="stroke:#181818;stroke-width:1.0;"/><polygon fill="#181818" points="273.5,345.778,277.5,336.778,273.5,340.778,269.5,336.778,273.5,345.778" style="stroke:#181818;stroke-width:1.0;"/><text fill="#000000" font-family="sans-serif" font-size="13" lengthAdjust="spacing" textLength="110" x="274.5" y="312.0669">User Registration</text></g><!--link UserInterface to PostManagement--><g id="link_UserInterface_PostManagement"><path d="M980.5,156.344 C980.5,177.197 980.5,205.979 980.5,226.778 " fill="none" id="UserInterface-to-PostManagement" style="stroke:#181818;stroke-width:1.0;"/><polygon fill="#181818" points="980.5,232.778,984.5,223.778,980.5,227.778,976.5,223.778,980.5,232.778" style="stroke:#181818;stroke-width:1.0;"/><text fill="#000000" font-family="sans-serif" font-size="13" lengthAdjust="spacing" textLength="116" x="981.5" y="199.0669">Post Management</text></g><!--link PostManagement to CreatePost--><g id="link_PostManagement_CreatePost"><path d="M907.182,254.594 C794.423,259.387 584.166,271.743 514.5,299 C487.836,309.432 466.6564,326.5682 450.6574,341.7202 " fill="none" id="PostManagement-to-CreatePost" style="stroke:#181818;stroke-width:1.0;"/><polygon fill="#181818" points="446.301,345.846,455.5861,342.5616,449.9313,342.4079,450.0851,336.7531,446.301,345.846" style="stroke:#181818;stroke-width:1.0;"/><text fill="#000000" font-family="sans-serif" font-size="13" lengthAdjust="spacing" textLength="82" x="515.5" y="312.0669">Create Posts</text></g><!--link PostManagement to EditPost--><g id="link_PostManagement_EditPost"><path d="M907.364,257.367 C820.977,264.504 683.001,278.632 635.5,299 C610.325,309.794 590.7321,326.5198 575.7341,341.5148 " fill="none" id="PostManagement-to-EditPost" style="stroke:#181818;stroke-width:1.0;"/><polygon fill="#181818" points="571.491,345.757,580.6837,342.2224,575.0269,342.2218,575.0275,336.565,571.491,345.757" style="stroke:#181818;stroke-width:1.0;"/><text fill="#000000" font-family="sans-serif" font-size="13" lengthAdjust="spacing" textLength="63" x="636.5" y="312.0669">Edit Posts</text></g><!--link PostManagement to SocialInteractions--><g id="link_PostManagement_SocialInteractions"><path d="M907.438,255.923 C839.097,261.157 743.726,272.996 717.5,299 C705.298,311.099 703.1746,325.3957 703.6106,339.8877 " fill="none" id="PostManagement-to-SocialInteractions" style="stroke:#181818;stroke-width:1.0;"/><polygon fill="#181818" points="703.791,345.885,707.5185,336.7688,703.6406,340.8873,699.5222,337.0094,703.791,345.885" style="stroke:#181818;stroke-width:1.0;"/><text fill="#000000" font-family="sans-serif" font-size="13" lengthAdjust="spacing" textLength="163" x="718.5" y="312.0669">Likes, Comments, Shares</text></g><!--link PostManagement to DecentralizedStorage--><g id="link_PostManagement_DecentralizedStorage"><path d="M1053.61,265.114 C1096.48,273.439 1151.47,285.228 1199.5,299 C1220.85,305.122 1225.55,308.618 1246.5,316 C1275.08,326.07 1301.4308,335.1375 1327.3308,343.9645 " fill="none" id="PostManagement-to-DecentralizedStorage" style="stroke:#181818;stroke-width:1.0;"/><polygon fill="#181818" points="1333.01,345.9,1325.7815,339.2105,1328.2773,344.287,1323.2008,346.7828,1333.01,345.9" style="stroke:#181818;stroke-width:1.0;"/><text fill="#000000" font-family="sans-serif" font-size="13" lengthAdjust="spacing" textLength="167" x="1247.5" y="312.0669">Upload/Download Content</text></g><!--link PostManagement to DecentralizedStorage--><g id="link_PostManagement_DecentralizedStorage"><path d="M1053.76,254.594 C1172.34,259.554 1395.55,272.347 1419.5,299 C1432.11,313.033 1422.4071,328.0436 1408.3471,341.7446 " fill="none" id="PostManagement-to-DecentralizedStorage-1" style="stroke:#181818;stroke-width:1.0;"/><polygon fill="#181818" points="1404.05,345.932,1413.2873,342.5156,1407.631,342.4425,1407.7041,336.7861,1404.05,345.932" style="stroke:#181818;stroke-width:1.0;"/><text fill="#000000" font-family="sans-serif" font-size="13" lengthAdjust="spacing" textLength="142" x="1425.5" y="312.0669">Decentralized Storage</text></g><!--link SocialInteractions to LikesComments--><g id="link_SocialInteractions_LikesComments"><path d="M638.691,382.032 C621.573,389.017 604.381,398.6964 591.5,412 C579.118,424.788 574.2244,438.6875 571.2854,452.871 " fill="none" id="SocialInteractions-to-LikesComments" style="stroke:#181818;stroke-width:1.0;"/><polygon fill="#181818" points="570.068,458.7462,575.8109,450.745,571.0825,453.8502,567.9773,449.1218,570.068,458.7462" style="stroke:#181818;stroke-width:1.0;"/><text fill="#000000" font-family="sans-serif" font-size="13" lengthAdjust="spacing" textLength="111" x="592.5" y="425.0669">Likes, Comments</text></g><!--link SocialInteractions to SharePost--><g id="link_SocialInteractions_SharePost"><path d="M707.844,382.344 C710.662,403.1969 714.5584,432.0334 717.3694,452.8321 " fill="none" id="SocialInteractions-to-SharePost" style="stroke:#181818;stroke-width:1.0;"/><polygon fill="#181818" points="718.173,458.778,720.9315,449.3233,717.5033,453.823,713.0036,450.3948,718.173,458.778" style="stroke:#181818;stroke-width:1.0;"/><text fill="#000000" font-family="sans-serif" font-size="13" lengthAdjust="spacing" textLength="76" x="715.5" y="425.0669">Share Posts</text></g><!--link PostManagement to MessagingSystem--><g id="link_PostManagement_MessagingSystem"><path d="M932.137,269.138 C918.511,276.295 905.079,286.041 896.5,299 C887.368,312.793 886.0833,326.0405 886.9383,339.8155 " fill="none" id="PostManagement-to-MessagingSystem" style="stroke:#181818;stroke-width:1.0;"/><polygon fill="#181818" points="887.31,345.804,890.7448,336.5735,887.0003,340.8136,882.7601,337.0691,887.31,345.804" style="stroke:#181818;stroke-width:1.0;"/><text fill="#000000" font-family="sans-serif" font-size="13" lengthAdjust="spacing" textLength="120" x="897.5" y="312.0669">Messaging System</text></g><!--link MessagingSystem to DirectMessages--><g id="link_MessagingSystem_DirectMessages"><path d="M886.291,382.341 C884.815,391.183 883.231,402.1274 882.5,412 C881.326,427.8474 881.4857,439.967 882.1107,452.8694 " fill="none" id="MessagingSystem-to-DirectMessages" style="stroke:#181818;stroke-width:1.0;"/><polygon fill="#181818" points="882.401,458.8624,885.9609,449.6794,882.1591,453.8683,877.9702,450.0665,882.401,458.8624" style="stroke:#181818;stroke-width:1.0;"/><text fill="#000000" font-family="sans-serif" font-size="13" lengthAdjust="spacing" textLength="154" x="883.5" y="425.0669">Send/Receive Messages</text></g><!--link PostManagement to BlockchainInteractions--><g id="link_PostManagement_BlockchainInteractions"><path d="M997.844,269.344 C1018.7,290.197 1049.2373,320.7365 1070.0373,341.5355 " fill="none" id="PostManagement-to-BlockchainInteractions" style="stroke:#181818;stroke-width:1.0;"/><polygon fill="#181818" points="1074.28,345.778,1070.7442,336.5857,1070.7444,342.2426,1065.0875,342.2427,1074.28,345.778" style="stroke:#181818;stroke-width:1.0;"/><text fill="#000000" font-family="sans-serif" font-size="13" lengthAdjust="spacing" textLength="146" x="1044.5" y="312.0669">Blockchain Interactions</text></g><!--link BlockchainInteractions to ExecuteSmartContracts--><g id="link_BlockchainInteractions_ExecuteSmartContracts"><path d="M1085.55,382.177 C1082.81,390.977 1079.87,401.933 1078.5,412 C1076.36,427.7618 1076.8767,439.9223 1078.3367,452.8502 " fill="none" id="BlockchainInteractions-to-ExecuteSmartContracts" style="stroke:#181818;stroke-width:1.0;"/><polygon fill="#181818" points="1079.01,458.8123,1081.9747,449.4203,1078.4489,453.8439,1074.0253,450.318,1079.01,458.8123" style="stroke:#181818;stroke-width:1.0;"/><text fill="#000000" font-family="sans-serif" font-size="13" lengthAdjust="spacing" textLength="161" x="1079.5" y="425.0669">Execute Smart Contracts</text></g><!--link DecentralizedStorage to UploadContent--><g id="link_DecentralizedStorage_UploadContent"><path d="M1314.26,382.087 C1299.76,388.969 1286.23,398.5847 1277.5,412 C1268.48,425.8668 1270.2638,439.4221 1275.0338,453.1743 " fill="none" id="DecentralizedStorage-to-UploadContent" style="stroke:#181818;stroke-width:1.0;"/><polygon fill="#181818" points="1277,458.843,1277.8298,449.0292,1275.3615,454.1191,1270.2716,451.6508,1277,458.843" style="stroke:#181818;stroke-width:1.0;"/><text fill="#000000" font-family="sans-serif" font-size="13" lengthAdjust="spacing" textLength="146" x="1278.5" y="425.0669">Upload Content to IPFS</text></g><!--link DecentralizedStorage to DownloadContent--><g id="link_DecentralizedStorage_DownloadContent"><path d="M1404.19,382.168 C1413.71,390.614 1424.79,401.2698 1433.5,412 C1445.47,426.7499 1453.6121,440.2165 1460.8621,453.5998 " fill="none" id="DecentralizedStorage-to-DownloadContent" style="stroke:#181818;stroke-width:1.0;"/><polygon fill="#181818" points="1463.72,458.8754,1462.9502,449.0567,1461.3384,454.479,1455.916,452.8672,1463.72,458.8754" style="stroke:#181818;stroke-width:1.0;"/><text fill="#000000" font-family="sans-serif" font-size="13" lengthAdjust="spacing" textLength="184" x="1447.5" y="425.0669">Download Content from IPFS</text></g><!--link PostManagement to DatabaseManagement--><g id="link_PostManagement_DatabaseManagement"><path d="M1053.6,253.878 C1190.56,258.035 1480.62,270.045 1576.5,299 C1610.4,309.238 1640.4503,327.1634 1662.8003,342.3794 " fill="none" id="PostManagement-to-DatabaseManagement" style="stroke:#181818;stroke-width:1.0;"/><polygon fill="#181818" points="1667.76,345.756,1662.5715,337.3846,1663.6269,342.9422,1658.0694,343.9976,1667.76,345.756" style="stroke:#181818;stroke-width:1.0;"/><text fill="#000000" font-family="sans-serif" font-size="13" lengthAdjust="spacing" textLength="150" x="1617.5" y="312.0669">Database Management</text></g><!--link DatabaseManagement to StoreData--><g id="link_DatabaseManagement_StoreData"><path d="M1692.56,382.114 C1693.37,395.0039 1694.5,413.1118 1695.5,429 C1696.12,438.7921 1696.4415,443.7432 1697.0015,452.6025 " fill="none" id="DatabaseManagement-to-StoreData" style="stroke:#181818;stroke-width:1.0;"/><polygon fill="#181818" points="1697.38,458.5905,1700.8043,449.3561,1697.0646,453.6005,1692.8202,449.8608,1697.38,458.5905" style="stroke:#181818;stroke-width:1.0;"/><text fill="#000000" font-family="sans-serif" font-size="13" lengthAdjust="spacing" textLength="148" x="1696.5" y="425.0669">Store Data in MongoDB</text></g><!--link DatabaseManagement to RetrieveData--><g id="link_DatabaseManagement_RetrieveData"><path d="M1782.6,379.905 C1806.05,386.869 1830.11,397.069 1849.5,412 C1865.17,424.0684 1873.6213,438.8512 1879.8213,453.3529 " fill="none" id="DatabaseManagement-to-RetrieveData" style="stroke:#181818;stroke-width:1.0;"/><polygon fill="#181818" points="1882.18,458.8698,1882.3199,449.0219,1880.2144,454.2724,1874.964,452.1669,1882.18,458.8698" style="stroke:#181818;stroke-width:1.0;"/><text fill="#000000" font-family="sans-serif" font-size="13" lengthAdjust="spacing" textLength="188" x="1866.5" y="425.0669">Retrieve Data from MongoDB</text></g><!--link UserInterface to ExternalInteractions--><g id="link_UserInterface_ExternalInteractions"><path d="M1039.14,150.203 C1142.72,169.992 1352.4766,210.0671 1471.7566,232.8541 " fill="none" id="UserInterface-to-ExternalInteractions" style="stroke:#181818;stroke-width:1.0;"/><polygon fill="#181818" points="1477.65,233.98,1469.5604,228.3623,1472.7388,233.0418,1468.0593,236.2201,1477.65,233.98" style="stroke:#181818;stroke-width:1.0;"/><text fill="#000000" font-family="sans-serif" font-size="13" lengthAdjust="spacing" textLength="132" x="1307.5" y="199.0669">External Interactions</text></g><!--link ExternalInteractions to InteractionsWithSystems--><g id="link_ExternalInteractions_InteractionsWithSystems"><path d="M1645.27,255.254 C1701.93,260.043 1777.3,271.566 1838.5,299 C1863.49,310.204 1883.1009,326.873 1898.1509,341.736 " fill="none" id="ExternalInteractions-to-InteractionsWithSystems" style="stroke:#181818;stroke-width:1.0;"/><polygon fill="#181818" points="1902.42,345.952,1898.8271,336.7819,1898.8624,342.4386,1893.2057,342.474,1902.42,345.952" style="stroke:#181818;stroke-width:1.0;"/><text fill="#000000" font-family="sans-serif" font-size="13" lengthAdjust="spacing" textLength="223" x="1866.5" y="312.0669">Interactions with External Systems</text></g><!--link ExternalEntities to UserInterface--><g id="link_ExternalEntities_UserInterface"><path d="M980.5,43.344 C980.5,64.197 980.5,92.979 980.5,113.778 " fill="none" id="ExternalEntities-to-UserInterface" style="stroke:#181818;stroke-width:1.0;"/><polygon fill="#181818" points="980.5,119.778,984.5,110.778,980.5,114.778,976.5,110.778,980.5,119.778" style="stroke:#181818;stroke-width:1.0;"/><text fill="#000000" font-family="sans-serif" font-size="13" lengthAdjust="spacing" textLength="65" x="981.5" y="86.0669">User Input</text></g><!--SRC=[ZLJBZkCW4BpdA_Y06Srz3ojD7Yj5saYZM3DpPd77GR4XWiuyzkkNni463DBUxEgk1hghou10hheUsAi5irS8viG5hCo4Fz_m30gbu2YrYWBxbc3yVWCZJyimrJj29osQFFIYBHwuuXqChaGKs1ZW21IEm5qhCOCQBIJl_MsveE8s2lwM5x0RFL3j66_EtEIr3s0jxwJgcc-BC4IHhQJlCGvncNMlnKMSkLILytTV86u8pS0DRhH2IedZMn10Q2__GjkWDkw0k6_NNlEMY6bljlfJLI8S-HzkeTXIEW0e8yAEW4R2HmxlljnxLBMlCVmkyJosp1OAx4WNqdLjbOYAFJx-pEJ4VdYTv2BBaeXNKfjZ1vWbAYpmSpc6anE9Bg-RIjMH261HfxC4uimgTldZZwVPKd9GjqkbpthYKlEEuhN-m8BQ7qQH5_absL4JlDoUWhfOa5VXEAgIBDVo0ZNQj7kEuh_hxynMqX4cXDstD4_npqlsbOu1rJuTtQFbHzZpScFA2-qgp854-wiAmK-pjFiqsX5dFi1cL_Z_EIKm2xPHJFPoZrra6dEOBaFDzY-_cZe_SnkwGAOGTZ9w6AkKNh7m92fn1-FzAIHwmGJReadIjoSpDug3LftUhcl4sDiSD_oET7_bK62vx2K3zCCRuLG5nMJlL6MV9BEAKpzTQ2uTp3ItqCcxvflUZMklhZVy1m00]--></g></svg>