<?xml version="1.0" encoding="us-ascii" standalone="no"?><svg xmlns="http://www.w3.org/2000/svg" xmlns:xlink="http://www.w3.org/1999/xlink" contentStyleType="text/css" height="556px" preserveAspectRatio="none" style="width:1594px;height:556px;background:#FFFFFF;" version="1.1" viewBox="0 0 1594 556" width="1594px" zoomAndPan="magnify"><defs/><g><!--class User--><g id="elem_User"><rect codeLine="7" fill="#F1F1F1" height="162.0781" id="User" rx="2.5" ry="2.5" style="stroke:#181818;stroke-width:0.5;" width="271" x="740.5" y="7"/><ellipse cx="856.25" cy="23" fill="#ADD1B2" rx="11" ry="11" style="stroke:#181818;stroke-width:1.0;"/><path d="M858.5938,18.6719 C857.6563,18.2344 857.0625,18.0938 856.1875,18.0938 C853.5625,18.0938 851.5625,20.1719 851.5625,22.8906 L851.5625,24.0156 C851.5625,26.5938 853.6719,28.4844 856.5625,28.4844 C857.7813,28.4844 858.9375,28.1875 859.6875,27.6406 C860.2656,27.2344 860.5938,26.7813 860.5938,26.3906 C860.5938,25.9375 860.2031,25.5469 859.7344,25.5469 C859.5156,25.5469 859.3125,25.625 859.125,25.8125 C858.6719,26.2969 858.6719,26.2969 858.4844,26.3906 C858.0625,26.6563 857.375,26.7813 856.6094,26.7813 C854.5625,26.7813 853.2656,25.6875 853.2656,23.9844 L853.2656,22.8906 C853.2656,21.1094 854.5156,19.7969 856.25,19.7969 C856.8281,19.7969 857.4375,19.9531 857.9063,20.2031 C858.3906,20.4844 858.5625,20.7031 858.6563,21.1094 C858.7188,21.5156 858.75,21.6406 858.8906,21.7656 C859.0313,21.9063 859.2656,22.0156 859.4844,22.0156 C859.75,22.0156 860.0156,21.875 860.1875,21.6563 C860.2969,21.5 860.3281,21.3125 860.3281,20.8906 L860.3281,19.4688 C860.3281,19.0313 860.3125,18.9063 860.2188,18.75 C860.0625,18.4844 859.7813,18.3438 859.4844,18.3438 C859.1875,18.3438 858.9844,18.4375 858.7656,18.75 L858.5938,18.6719 Z " fill="#000000"/><text fill="#000000" font-family="sans-serif" font-size="14" lengthAdjust="spacing" textLength="31" x="876.75" y="27.8467">User</text><line style="stroke:#181818;stroke-width:0.5;" x1="741.5" x2="1010.5" y1="39" y2="39"/><ellipse cx="751.5" cy="52.6484" fill="none" rx="3" ry="3" style="stroke:#038048;stroke-width:1.0;"/><text fill="#000000" font-family="sans-serif" font-size="14" lengthAdjust="spacing" textLength="79" x="760.5" y="55.9951">UserID : int</text><text fill="#000000" font-family="sans-serif" font-size="14" lengthAdjust="spacing" textLength="127" x="760.5" y="72.292">UserName : string</text><text fill="#000000" font-family="sans-serif" font-size="14" lengthAdjust="spacing" textLength="94" x="760.5" y="88.5889">Email : string</text><text fill="#000000" font-family="sans-serif" font-size="14" lengthAdjust="spacing" textLength="121" x="760.5" y="104.8857">Password : string</text><text fill="#000000" font-family="sans-serif" font-size="14" lengthAdjust="spacing" textLength="117" x="760.5" y="121.1826">BirthDate : date</text><text fill="#000000" font-family="sans-serif" font-size="14" lengthAdjust="spacing" textLength="112" x="760.5" y="137.4795">Country : string</text><text fill="#000000" font-family="sans-serif" font-size="14" lengthAdjust="spacing" textLength="245" x="760.5" y="153.7764">// Other User attributes as needed</text><line style="stroke:#181818;stroke-width:0.5;" x1="741.5" x2="1010.5" y1="161.0781" y2="161.0781"/></g><!--class Post--><g id="elem_Post"><rect codeLine="17" fill="#F1F1F1" height="113.1875" id="Post" rx="2.5" ry="2.5" style="stroke:#181818;stroke-width:0.5;" width="272" x="241" y="246"/><ellipse cx="356.75" cy="262" fill="#ADD1B2" rx="11" ry="11" style="stroke:#181818;stroke-width:1.0;"/><path d="M359.0938,257.6719 C358.1563,257.2344 357.5625,257.0938 356.6875,257.0938 C354.0625,257.0938 352.0625,259.1719 352.0625,261.8906 L352.0625,263.0156 C352.0625,265.5938 354.1719,267.4844 357.0625,267.4844 C358.2813,267.4844 359.4375,267.1875 360.1875,266.6406 C360.7656,266.2344 361.0938,265.7813 361.0938,265.3906 C361.0938,264.9375 360.7031,264.5469 360.2344,264.5469 C360.0156,264.5469 359.8125,264.625 359.625,264.8125 C359.1719,265.2969 359.1719,265.2969 358.9844,265.3906 C358.5625,265.6563 357.875,265.7813 357.1094,265.7813 C355.0625,265.7813 353.7656,264.6875 353.7656,262.9844 L353.7656,261.8906 C353.7656,260.1094 355.0156,258.7969 356.75,258.7969 C357.3281,258.7969 357.9375,258.9531 358.4063,259.2031 C358.8906,259.4844 359.0625,259.7031 359.1563,260.1094 C359.2188,260.5156 359.25,260.6406 359.3906,260.7656 C359.5313,260.9063 359.7656,261.0156 359.9844,261.0156 C360.25,261.0156 360.5156,260.875 360.6875,260.6563 C360.7969,260.5 360.8281,260.3125 360.8281,259.8906 L360.8281,258.4688 C360.8281,258.0313 360.8125,257.9063 360.7188,257.75 C360.5625,257.4844 360.2813,257.3438 359.9844,257.3438 C359.6875,257.3438 359.4844,257.4375 359.2656,257.75 L359.0938,257.6719 Z " fill="#000000"/><text fill="#000000" font-family="sans-serif" font-size="14" lengthAdjust="spacing" textLength="32" x="377.25" y="266.8467">Post</text><line style="stroke:#181818;stroke-width:0.5;" x1="242" x2="512" y1="278" y2="278"/><ellipse cx="252" cy="291.6484" fill="none" rx="3" ry="3" style="stroke:#038048;stroke-width:1.0;"/><text fill="#000000" font-family="sans-serif" font-size="14" lengthAdjust="spacing" textLength="80" x="261" y="294.9951">PostID : int</text><text fill="#000000" font-family="sans-serif" font-size="14" lengthAdjust="spacing" textLength="115" x="261" y="311.292">Content : string</text><text fill="#000000" font-family="sans-serif" font-size="14" lengthAdjust="spacing" textLength="162" x="261" y="327.5889">Timestamp : datetime</text><text fill="#000000" font-family="sans-serif" font-size="14" lengthAdjust="spacing" textLength="246" x="261" y="343.8857">// Other Post attributes as needed</text><line style="stroke:#181818;stroke-width:0.5;" x1="242" x2="512" y1="351.1875" y2="351.1875"/></g><!--class Comment--><g id="elem_Comment"><rect codeLine="24" fill="#F1F1F1" height="113.1875" id="Comment" rx="2.5" ry="2.5" style="stroke:#181818;stroke-width:0.5;" width="312" x="7" y="436"/><ellipse cx="122.75" cy="452" fill="#ADD1B2" rx="11" ry="11" style="stroke:#181818;stroke-width:1.0;"/><path d="M125.0938,447.6719 C124.1563,447.2344 123.5625,447.0938 122.6875,447.0938 C120.0625,447.0938 118.0625,449.1719 118.0625,451.8906 L118.0625,453.0156 C118.0625,455.5938 120.1719,457.4844 123.0625,457.4844 C124.2813,457.4844 125.4375,457.1875 126.1875,456.6406 C126.7656,456.2344 127.0938,455.7813 127.0938,455.3906 C127.0938,454.9375 126.7031,454.5469 126.2344,454.5469 C126.0156,454.5469 125.8125,454.625 125.625,454.8125 C125.1719,455.2969 125.1719,455.2969 124.9844,455.3906 C124.5625,455.6563 123.875,455.7813 123.1094,455.7813 C121.0625,455.7813 119.7656,454.6875 119.7656,452.9844 L119.7656,451.8906 C119.7656,450.1094 121.0156,448.7969 122.75,448.7969 C123.3281,448.7969 123.9375,448.9531 124.4063,449.2031 C124.8906,449.4844 125.0625,449.7031 125.1563,450.1094 C125.2188,450.5156 125.25,450.6406 125.3906,450.7656 C125.5313,450.9063 125.7656,451.0156 125.9844,451.0156 C126.25,451.0156 126.5156,450.875 126.6875,450.6563 C126.7969,450.5 126.8281,450.3125 126.8281,449.8906 L126.8281,448.4688 C126.8281,448.0313 126.8125,447.9063 126.7188,447.75 C126.5625,447.4844 126.2813,447.3438 125.9844,447.3438 C125.6875,447.3438 125.4844,447.4375 125.2656,447.75 L125.0938,447.6719 Z " fill="#000000"/><text fill="#000000" font-family="sans-serif" font-size="14" lengthAdjust="spacing" textLength="72" x="143.25" y="456.8467">Comment</text><line style="stroke:#181818;stroke-width:0.5;" x1="8" x2="318" y1="468" y2="468"/><ellipse cx="18" cy="481.6484" fill="none" rx="3" ry="3" style="stroke:#038048;stroke-width:1.0;"/><text fill="#000000" font-family="sans-serif" font-size="14" lengthAdjust="spacing" textLength="120" x="27" y="484.9951">CommentID : int</text><text fill="#000000" font-family="sans-serif" font-size="14" lengthAdjust="spacing" textLength="115" x="27" y="501.292">Content : string</text><text fill="#000000" font-family="sans-serif" font-size="14" lengthAdjust="spacing" textLength="162" x="27" y="517.5889">Timestamp : datetime</text><text fill="#000000" font-family="sans-serif" font-size="14" lengthAdjust="spacing" textLength="286" x="27" y="533.8857">// Other Comment attributes as needed</text><line style="stroke:#181818;stroke-width:0.5;" x1="8" x2="318" y1="541.1875" y2="541.1875"/></g><!--class Like--><g id="elem_Like"><rect codeLine="31" fill="#F1F1F1" height="80.5938" id="Like" rx="2.5" ry="2.5" style="stroke:#181818;stroke-width:0.5;" width="270" x="354" y="452"/><ellipse cx="469.75" cy="468" fill="#ADD1B2" rx="11" ry="11" style="stroke:#181818;stroke-width:1.0;"/><path d="M472.0938,463.6719 C471.1563,463.2344 470.5625,463.0938 469.6875,463.0938 C467.0625,463.0938 465.0625,465.1719 465.0625,467.8906 L465.0625,469.0156 C465.0625,471.5938 467.1719,473.4844 470.0625,473.4844 C471.2813,473.4844 472.4375,473.1875 473.1875,472.6406 C473.7656,472.2344 474.0938,471.7813 474.0938,471.3906 C474.0938,470.9375 473.7031,470.5469 473.2344,470.5469 C473.0156,470.5469 472.8125,470.625 472.625,470.8125 C472.1719,471.2969 472.1719,471.2969 471.9844,471.3906 C471.5625,471.6563 470.875,471.7813 470.1094,471.7813 C468.0625,471.7813 466.7656,470.6875 466.7656,468.9844 L466.7656,467.8906 C466.7656,466.1094 468.0156,464.7969 469.75,464.7969 C470.3281,464.7969 470.9375,464.9531 471.4063,465.2031 C471.8906,465.4844 472.0625,465.7031 472.1563,466.1094 C472.2188,466.5156 472.25,466.6406 472.3906,466.7656 C472.5313,466.9063 472.7656,467.0156 472.9844,467.0156 C473.25,467.0156 473.5156,466.875 473.6875,466.6563 C473.7969,466.5 473.8281,466.3125 473.8281,465.8906 L473.8281,464.4688 C473.8281,464.0313 473.8125,463.9063 473.7188,463.75 C473.5625,463.4844 473.2813,463.3438 472.9844,463.3438 C472.6875,463.3438 472.4844,463.4375 472.2656,463.75 L472.0938,463.6719 Z " fill="#000000"/><text fill="#000000" font-family="sans-serif" font-size="14" lengthAdjust="spacing" textLength="30" x="490.25" y="472.8467">Like</text><line style="stroke:#181818;stroke-width:0.5;" x1="355" x2="623" y1="484" y2="484"/><ellipse cx="365" cy="497.6484" fill="none" rx="3" ry="3" style="stroke:#038048;stroke-width:1.0;"/><text fill="#000000" font-family="sans-serif" font-size="14" lengthAdjust="spacing" textLength="78" x="374" y="500.9951">LikeID : int</text><text fill="#000000" font-family="sans-serif" font-size="14" lengthAdjust="spacing" textLength="244" x="374" y="517.292">// Other Like attributes as needed</text><line style="stroke:#181818;stroke-width:0.5;" x1="355" x2="623" y1="524.5938" y2="524.5938"/></g><!--class Message--><g id="elem_Message"><rect codeLine="36" fill="#F1F1F1" height="113.1875" id="Message" rx="2.5" ry="2.5" style="stroke:#181818;stroke-width:0.5;" width="301" x="950.5" y="246"/><ellipse cx="1066.25" cy="262" fill="#ADD1B2" rx="11" ry="11" style="stroke:#181818;stroke-width:1.0;"/><path d="M1068.5938,257.6719 C1067.6563,257.2344 1067.0625,257.0938 1066.1875,257.0938 C1063.5625,257.0938 1061.5625,259.1719 1061.5625,261.8906 L1061.5625,263.0156 C1061.5625,265.5938 1063.6719,267.4844 1066.5625,267.4844 C1067.7813,267.4844 1068.9375,267.1875 1069.6875,266.6406 C1070.2656,266.2344 1070.5938,265.7813 1070.5938,265.3906 C1070.5938,264.9375 1070.2031,264.5469 1069.7344,264.5469 C1069.5156,264.5469 1069.3125,264.625 1069.125,264.8125 C1068.6719,265.2969 1068.6719,265.2969 1068.4844,265.3906 C1068.0625,265.6563 1067.375,265.7813 1066.6094,265.7813 C1064.5625,265.7813 1063.2656,264.6875 1063.2656,262.9844 L1063.2656,261.8906 C1063.2656,260.1094 1064.5156,258.7969 1066.25,258.7969 C1066.8281,258.7969 1067.4375,258.9531 1067.9063,259.2031 C1068.3906,259.4844 1068.5625,259.7031 1068.6563,260.1094 C1068.7188,260.5156 1068.75,260.6406 1068.8906,260.7656 C1069.0313,260.9063 1069.2656,261.0156 1069.4844,261.0156 C1069.75,261.0156 1070.0156,260.875 1070.1875,260.6563 C1070.2969,260.5 1070.3281,260.3125 1070.3281,259.8906 L1070.3281,258.4688 C1070.3281,258.0313 1070.3125,257.9063 1070.2188,257.75 C1070.0625,257.4844 1069.7813,257.3438 1069.4844,257.3438 C1069.1875,257.3438 1068.9844,257.4375 1068.7656,257.75 L1068.5938,257.6719 Z " fill="#000000"/><text fill="#000000" font-family="sans-serif" font-size="14" lengthAdjust="spacing" textLength="61" x="1086.75" y="266.8467">Message</text><line style="stroke:#181818;stroke-width:0.5;" x1="951.5" x2="1250.5" y1="278" y2="278"/><ellipse cx="961.5" cy="291.6484" fill="none" rx="3" ry="3" style="stroke:#038048;stroke-width:1.0;"/><text fill="#000000" font-family="sans-serif" font-size="14" lengthAdjust="spacing" textLength="109" x="970.5" y="294.9951">MessageID : int</text><text fill="#000000" font-family="sans-serif" font-size="14" lengthAdjust="spacing" textLength="115" x="970.5" y="311.292">Content : string</text><text fill="#000000" font-family="sans-serif" font-size="14" lengthAdjust="spacing" textLength="162" x="970.5" y="327.5889">Timestamp : datetime</text><text fill="#000000" font-family="sans-serif" font-size="14" lengthAdjust="spacing" textLength="275" x="970.5" y="343.8857">// Other Message attributes as needed</text><line style="stroke:#181818;stroke-width:0.5;" x1="951.5" x2="1250.5" y1="351.1875" y2="351.1875"/></g><!--class Follower--><g id="elem_Follower"><rect codeLine="43" fill="#F1F1F1" height="80.5938" id="Follower" rx="2.5" ry="2.5" style="stroke:#181818;stroke-width:0.5;" width="300" x="1287" y="262"/><ellipse cx="1402.75" cy="278" fill="#ADD1B2" rx="11" ry="11" style="stroke:#181818;stroke-width:1.0;"/><path d="M1405.0938,273.6719 C1404.1563,273.2344 1403.5625,273.0938 1402.6875,273.0938 C1400.0625,273.0938 1398.0625,275.1719 1398.0625,277.8906 L1398.0625,279.0156 C1398.0625,281.5938 1400.1719,283.4844 1403.0625,283.4844 C1404.2813,283.4844 1405.4375,283.1875 1406.1875,282.6406 C1406.7656,282.2344 1407.0938,281.7813 1407.0938,281.3906 C1407.0938,280.9375 1406.7031,280.5469 1406.2344,280.5469 C1406.0156,280.5469 1405.8125,280.625 1405.625,280.8125 C1405.1719,281.2969 1405.1719,281.2969 1404.9844,281.3906 C1404.5625,281.6563 1403.875,281.7813 1403.1094,281.7813 C1401.0625,281.7813 1399.7656,280.6875 1399.7656,278.9844 L1399.7656,277.8906 C1399.7656,276.1094 1401.0156,274.7969 1402.75,274.7969 C1403.3281,274.7969 1403.9375,274.9531 1404.4063,275.2031 C1404.8906,275.4844 1405.0625,275.7031 1405.1563,276.1094 C1405.2188,276.5156 1405.25,276.6406 1405.3906,276.7656 C1405.5313,276.9063 1405.7656,277.0156 1405.9844,277.0156 C1406.25,277.0156 1406.5156,276.875 1406.6875,276.6563 C1406.7969,276.5 1406.8281,276.3125 1406.8281,275.8906 L1406.8281,274.4688 C1406.8281,274.0313 1406.8125,273.9063 1406.7188,273.75 C1406.5625,273.4844 1406.2813,273.3438 1405.9844,273.3438 C1405.6875,273.3438 1405.4844,273.4375 1405.2656,273.75 L1405.0938,273.6719 Z " fill="#000000"/><text fill="#000000" font-family="sans-serif" font-size="14" lengthAdjust="spacing" textLength="60" x="1423.25" y="282.8467">Follower</text><line style="stroke:#181818;stroke-width:0.5;" x1="1288" x2="1586" y1="294" y2="294"/><ellipse cx="1298" cy="307.6484" fill="none" rx="3" ry="3" style="stroke:#038048;stroke-width:1.0;"/><text fill="#000000" font-family="sans-serif" font-size="14" lengthAdjust="spacing" textLength="108" x="1307" y="310.9951">FollowerID : int</text><text fill="#000000" font-family="sans-serif" font-size="14" lengthAdjust="spacing" textLength="274" x="1307" y="327.292">// Other Follower attributes as needed</text><line style="stroke:#181818;stroke-width:0.5;" x1="1288" x2="1586" y1="334.5938" y2="334.5938"/></g><!--class ExternalSystem--><g id="elem_ExternalSystem"><rect codeLine="48" fill="#F1F1F1" height="113.1875" id="ExternalSystem" rx="2.5" ry="2.5" style="stroke:#181818;stroke-width:0.5;" width="354" x="659" y="436"/><ellipse cx="774.75" cy="452" fill="#ADD1B2" rx="11" ry="11" style="stroke:#181818;stroke-width:1.0;"/><path d="M777.0938,447.6719 C776.1563,447.2344 775.5625,447.0938 774.6875,447.0938 C772.0625,447.0938 770.0625,449.1719 770.0625,451.8906 L770.0625,453.0156 C770.0625,455.5938 772.1719,457.4844 775.0625,457.4844 C776.2813,457.4844 777.4375,457.1875 778.1875,456.6406 C778.7656,456.2344 779.0938,455.7813 779.0938,455.3906 C779.0938,454.9375 778.7031,454.5469 778.2344,454.5469 C778.0156,454.5469 777.8125,454.625 777.625,454.8125 C777.1719,455.2969 777.1719,455.2969 776.9844,455.3906 C776.5625,455.6563 775.875,455.7813 775.1094,455.7813 C773.0625,455.7813 771.7656,454.6875 771.7656,452.9844 L771.7656,451.8906 C771.7656,450.1094 773.0156,448.7969 774.75,448.7969 C775.3281,448.7969 775.9375,448.9531 776.4063,449.2031 C776.8906,449.4844 777.0625,449.7031 777.1563,450.1094 C777.2188,450.5156 777.25,450.6406 777.3906,450.7656 C777.5313,450.9063 777.7656,451.0156 777.9844,451.0156 C778.25,451.0156 778.5156,450.875 778.6875,450.6563 C778.7969,450.5 778.8281,450.3125 778.8281,449.8906 L778.8281,448.4688 C778.8281,448.0313 778.8125,447.9063 778.7188,447.75 C778.5625,447.4844 778.2813,447.3438 777.9844,447.3438 C777.6875,447.3438 777.4844,447.4375 777.2656,447.75 L777.0938,447.6719 Z " fill="#000000"/><text fill="#000000" font-family="sans-serif" font-size="14" lengthAdjust="spacing" textLength="114" x="795.25" y="456.8467">ExternalSystem</text><line style="stroke:#181818;stroke-width:0.5;" x1="660" x2="1012" y1="468" y2="468"/><ellipse cx="670" cy="481.6484" fill="none" rx="3" ry="3" style="stroke:#038048;stroke-width:1.0;"/><text fill="#000000" font-family="sans-serif" font-size="14" lengthAdjust="spacing" textLength="102" x="679" y="484.9951">SystemID : int</text><text fill="#000000" font-family="sans-serif" font-size="14" lengthAdjust="spacing" textLength="96" x="679" y="501.292">Name : string</text><text fill="#000000" font-family="sans-serif" font-size="14" lengthAdjust="spacing" textLength="91" x="679" y="517.5889">Type : string</text><text fill="#000000" font-family="sans-serif" font-size="14" lengthAdjust="spacing" textLength="328" x="679" y="533.8857">// Other ExternalSystem attributes as needed</text><line style="stroke:#181818;stroke-width:0.5;" x1="660" x2="1012" y1="541.1875" y2="541.1875"/></g><!--link User to Post--><g id="link_User_Post"><path codeLine="55" d="M740.251,115.899 C667.815,133.499 578.675,160.482 505,199 C481.032,211.531 463.4001,223.7887 442.9361,240.6507 " fill="none" id="User-to-Post" style="stroke:#181818;stroke-width:1.0;"/><line style="stroke:#181818;stroke-width:1.0;" x1="442.9361" x2="440.5775" y1="240.6507" y2="250.3685"/><line style="stroke:#181818;stroke-width:1.0;" x1="442.9361" x2="432.9465" y1="240.6507" y2="241.1075"/><line style="stroke:#181818;stroke-width:1.0;" x1="442.9361" x2="436.762" y1="240.6507" y2="245.738"/><line style="stroke:#181818;stroke-width:1.0;" x1="447.0232" x2="441.9359" y1="242.4659" y2="236.2918"/><text fill="#000000" font-family="sans-serif" font-size="13" lengthAdjust="spacing" textLength="50" x="506" y="212.0669">Creates</text></g><!--link User to Comment--><g id="link_User_Comment"><path codeLine="56" d="M740.378,100.658 C558.93,119.29 251.629,162.502 180,246 C135.423,297.964 138.6074,373.1909 148.2614,428.0879 " fill="none" id="User-to-Comment" style="stroke:#181818;stroke-width:1.0;"/><line style="stroke:#181818;stroke-width:1.0;" x1="148.2614" x2="155.5563" y1="428.0879" y2="434.9278"/><line style="stroke:#181818;stroke-width:1.0;" x1="148.2614" x2="143.7377" y1="428.0879" y2="437.0062"/><line style="stroke:#181818;stroke-width:1.0;" x1="148.2614" x2="149.647" y1="428.0879" y2="435.967"/><line style="stroke:#181818;stroke-width:1.0;" x1="151.8546" x2="143.9755" y1="425.4253" y2="426.8109"/><text fill="#000000" font-family="sans-serif" font-size="13" lengthAdjust="spacing" textLength="41" x="181" y="307.0669">Writes</text></g><!--link User to Like--><g id="link_User_Like"><path codeLine="57" d="M746.74,169.061 C715.646,191.704 683.953,217.908 658,246 C601.57,307.082 609.484,338.437 561,406 C549.912,421.451 541.9595,431.5204 529.9515,445.5711 " fill="none" id="User-to-Like" style="stroke:#181818;stroke-width:1.0;"/><line style="stroke:#181818;stroke-width:1.0;" x1="529.9515" x2="529.3152" y1="445.5711" y2="455.5508"/><line style="stroke:#181818;stroke-width:1.0;" x1="529.9515" x2="520.1928" y1="445.5711" y2="447.7546"/><line style="stroke:#181818;stroke-width:1.0;" x1="529.9515" x2="524.754" y1="445.5711" y2="451.6527"/><line style="stroke:#181818;stroke-width:1.0;" x1="534.2917" x2="528.21" y1="446.6494" y2="441.4519"/><text fill="#000000" font-family="sans-serif" font-size="13" lengthAdjust="spacing" textLength="32" x="659" y="307.0669">Likes</text></g><!--link User to Message--><g id="link_User_Message"><path codeLine="58" d="M890.887,169.171 C896.874,186.039 905.259,202.722 917,216 C927.033,227.347 932.2733,232.7931 945.0543,241.4911 " fill="none" id="User-to-Message" style="stroke:#181818;stroke-width:1.0;"/><line style="stroke:#181818;stroke-width:1.0;" x1="945.0543" x2="955.0437" y1="241.4911" y2="241.0317"/><line style="stroke:#181818;stroke-width:1.0;" x1="945.0543" x2="948.2923" y1="241.4911" y2="250.9523"/><line style="stroke:#181818;stroke-width:1.0;" x1="945.0543" x2="951.668" y1="241.4911" y2="245.992"/><line style="stroke:#181818;stroke-width:1.0;" x1="945.6513" x2="941.1504" y1="237.059" y2="243.6727"/><text fill="#000000" font-family="sans-serif" font-size="13" lengthAdjust="spacing" textLength="39" x="918" y="212.0669">Sends</text></g><!--link User to Message--><g id="link_User_Message"><path codeLine="69" d="M960.742,169.034 C987.899,194.682 1004.2755,210.1429 1029.1455,233.6379 " fill="none" id="User-to-Message-1" style="stroke:#181818;stroke-width:1.0;"/><line style="stroke:#181818;stroke-width:1.0;" x1="1036.4147" x2="1046.3504" y1="240.5052" y2="241.6375"/><line style="stroke:#181818;stroke-width:1.0;" x1="1036.4147" x2="1038.1096" y1="240.5052" y2="250.3605"/><line style="stroke:#181818;stroke-width:1.0;" x1="1036.4147" x2="1042.23" y1="240.5052" y2="245.999"/><ellipse cx="1032.0532" cy="236.3848" fill="none" rx="4" ry="4" style="stroke:#181818;stroke-width:1.0;"/><text fill="#000000" font-family="sans-serif" font-size="13" lengthAdjust="spacing" textLength="58" x="1010" y="212.0669">Receives</text></g><!--link User to Follower--><g id="link_User_Follower"><path codeLine="59" d="M1011.61,150.408 C1061.86,172.253 1119.6,196.296 1173,216 C1214.94,231.474 1226.44,232.322 1269,246 C1284.94,251.122 1294.0982,254.0863 1310.6182,259.5033 " fill="none" id="User-to-Follower" style="stroke:#181818;stroke-width:1.0;"/><line style="stroke:#181818;stroke-width:1.0;" x1="1310.6182" x2="1320.0895" y1="259.5033" y2="256.2947"/><line style="stroke:#181818;stroke-width:1.0;" x1="1310.6182" x2="1316.3505" y1="259.5033" y2="267.6973"/><line style="stroke:#181818;stroke-width:1.0;" x1="1310.6182" x2="1318.22" y1="259.5033" y2="261.996"/><line style="stroke:#181818;stroke-width:1.0;" x1="1309.9641" x2="1307.4715" y1="255.0793" y2="262.6811"/><text fill="#000000" font-family="sans-serif" font-size="13" lengthAdjust="spacing" textLength="47" x="1174" y="212.0669">Follows</text></g><!--link Follower to User--><g id="link_Follower_User"><path codeLine="66" d="M1392.93,261.867 C1367.14,240.526 1333.05,215.306 1299,199 C1207.81,155.328 1104.799,128.8639 1019.449,112.0429 " fill="none" id="Follower-to-User" style="stroke:#181818;stroke-width:1.0;"/><line style="stroke:#181818;stroke-width:1.0;" x1="1019.449" x2="1010.4398" y1="112.0429" y2="116.3828"/><line style="stroke:#181818;stroke-width:1.0;" x1="1019.449" x2="1012.7602" y1="112.0429" y2="104.6092"/><line style="stroke:#181818;stroke-width:1.0;" x1="1019.449" x2="1011.6" y1="112.0429" y2="110.496"/><line style="stroke:#181818;stroke-width:1.0;" x1="1020.6378" x2="1022.1847" y1="116.3541" y2="108.5051"/><text fill="#000000" font-family="sans-serif" font-size="13" lengthAdjust="spacing" textLength="47" x="1329" y="212.0669">Follows</text></g><!--link User to Follower--><g id="link_User_Follower"><path codeLine="68" d="M1011.83,126.601 C1077.35,146.021 1156.6,171.413 1226,199 C1251.78,209.249 1293.7828,229.5882 1342.5028,253.8912 " fill="none" id="User-to-Follower-1" style="stroke:#181818;stroke-width:1.0;"/><line style="stroke:#181818;stroke-width:1.0;" x1="1351.4512" x2="1361.2883" y1="258.355" y2="256.5569"/><line style="stroke:#181818;stroke-width:1.0;" x1="1351.4512" x2="1355.9317" y1="258.355" y2="267.2951"/><line style="stroke:#181818;stroke-width:1.0;" x1="1351.4512" x2="1358.61" y1="258.355" y2="261.926"/><ellipse cx="1346.0822" cy="255.6767" fill="none" rx="4" ry="4" style="stroke:#181818;stroke-width:1.0;"/><text fill="#000000" font-family="sans-serif" font-size="13" lengthAdjust="spacing" textLength="24" x="1263" y="212.0669">Has</text></g><!--link User to ExternalSystem--><g id="link_User_ExternalSystem"><path codeLine="60" d="M768.479,169.093 C746.364,191.323 726.141,217.328 714,246 C694.418,292.247 695.741,312.214 714,359 C725.311,387.984 740.6223,408.7781 762.0083,430.3091 " fill="none" id="User-to-ExternalSystem" style="stroke:#181818;stroke-width:1.0;"/><line style="stroke:#181818;stroke-width:1.0;" x1="762.0083" x2="771.903" y1="430.3091" y2="431.7567"/><line style="stroke:#181818;stroke-width:1.0;" x1="762.0083" x2="763.389" y1="430.3091" y2="440.2133"/><line style="stroke:#181818;stroke-width:1.0;" x1="762.0083" x2="767.646" y1="430.3091" y2="435.985"/><line style="stroke:#181818;stroke-width:1.0;" x1="763.4368" x2="757.7609" y1="426.0712" y2="431.7089"/><text fill="#000000" font-family="sans-serif" font-size="13" lengthAdjust="spacing" textLength="85" x="715" y="307.0669">InteractsWith</text></g><!--link User to ExternalSystem--><g id="link_User_ExternalSystem"><path codeLine="70" d="M868.049,169.002 C860.201,247.982 850.184,348.7712 843.306,417.9832 " fill="none" id="User-to-ExternalSystem-1" style="stroke:#181818;stroke-width:1.0;"/><line style="stroke:#181818;stroke-width:1.0;" x1="842.3171" x2="847.4966" y1="427.9342" y2="436.4883"/><line style="stroke:#181818;stroke-width:1.0;" x1="842.3171" x2="835.5554" y1="427.9342" y2="435.3017"/><line style="stroke:#181818;stroke-width:1.0;" x1="842.3171" x2="841.526" y1="427.9342" y2="435.895"/><ellipse cx="842.9104" cy="421.9636" fill="none" rx="4" ry="4" style="stroke:#181818;stroke-width:1.0;"/><text fill="#000000" font-family="sans-serif" font-size="13" lengthAdjust="spacing" textLength="69" x="861" y="307.0669">HasAccess</text></g><!--link Post to Comment--><g id="link_Post_Comment"><path codeLine="62" d="M313.662,359.143 C286.054,383.397 259.7751,406.4819 232.1861,430.7199 " fill="none" id="Post-to-Comment" style="stroke:#181818;stroke-width:1.0;"/><line style="stroke:#181818;stroke-width:1.0;" x1="232.1861" x2="230.1361" y1="430.7199" y2="440.5075"/><line style="stroke:#181818;stroke-width:1.0;" x1="232.1861" x2="222.2159" y1="430.7199" y2="431.4925"/><line style="stroke:#181818;stroke-width:1.0;" x1="232.1861" x2="226.176" y1="430.7199" y2="436"/><line style="stroke:#181818;stroke-width:1.0;" x1="236.3286" x2="231.0485" y1="432.4049" y2="426.3949"/><text fill="#000000" font-family="sans-serif" font-size="13" lengthAdjust="spacing" textLength="24" x="278" y="402.0669">Has</text></g><!--link Post to Like--><g id="link_Post_Like"><path codeLine="63" d="M380.041,359.199 C382.655,375.046 387.201,391.835 395,406 C404.469,423.199 412.7491,433.4452 427.3061,446.4453 " fill="none" id="Post-to-Like" style="stroke:#181818;stroke-width:1.0;"/><line style="stroke:#181818;stroke-width:1.0;" x1="427.3061" x2="437.2696" y1="446.4453" y2="447.2989"/><line style="stroke:#181818;stroke-width:1.0;" x1="427.3061" x2="429.2764" y1="446.4453" y2="456.2493"/><line style="stroke:#181818;stroke-width:1.0;" x1="427.3061" x2="433.273" y1="446.4453" y2="451.7741"/><line style="stroke:#181818;stroke-width:1.0;" x1="428.4787" x2="423.15" y1="442.1297" y2="448.0966"/><text fill="#000000" font-family="sans-serif" font-size="13" lengthAdjust="spacing" textLength="24" x="396" y="402.0669">Has</text></g><!--link Post to ExternalSystem--><g id="link_Post_ExternalSystem"><path codeLine="64" d="M483.199,359.13 C515.491,375.146 551.346,392.045 585,406 C609.983,416.36 629.1849,423.7741 655.5529,433.2001 " fill="none" id="Post-to-ExternalSystem" style="stroke:#181818;stroke-width:1.0;"/><line style="stroke:#181818;stroke-width:1.0;" x1="655.5529" x2="665.1057" y1="433.2001" y2="430.2431"/><line style="stroke:#181818;stroke-width:1.0;" x1="655.5529" x2="661.0663" y1="433.2001" y2="441.5429"/><line style="stroke:#181818;stroke-width:1.0;" x1="655.5529" x2="663.086" y1="433.2001" y2="435.893"/><line style="stroke:#181818;stroke-width:1.0;" x1="655.0161" x2="652.3231" y1="428.7603" y2="436.2934"/><text fill="#000000" font-family="sans-serif" font-size="13" lengthAdjust="spacing" textLength="74" x="586" y="402.0669">SharedWith</text></g><!--SRC=[fLB1ReCm3Btp5Ubvgdhdrb6c8dLjLPYg7JFmIZH8giHTLtNxzuKG8D1D77gA_Mo_zv9uai4xuq32TH8bhoGjg5BUf0KN5l_nMd0NhkP9j5d7osXBTBT86KKck3lLwz6pbkL5WIHNZv27AeeMn2UCeywhT4rBq812oVX1Os59MU42Mors5Z9piKScCLzGh2OpVMWe42UEyk9spMPaWxdMDWOeQlpjXA2qVS81CiYypkHMAAnDLf5ZCX0SWQDBdB0I5DBoQELHvwwUuHhH2qHPLhH6qYRtgJQC8y8hzW6rQXKvaYsHwHXXUGQbwC4IsUG- -mtZYF2JA0fnRXQgoVwwHjivmXX-8KXEY_YY4CgQjuuTrk6Q9fSZ_Bbh0xR_jCrAJgVVrtfPV198q8-Yd4BpdpxPIzOlcH_opU72pHFw90QUkPNsBNmRkiM1PPz4-lCaJL7j6UQUPnmEB2sfSd3hfm_UqCOvbP3LdAqXqsgyTDOQRw9dl6Bl2jrTTv02-mItU2EjP-TfgaT-0G00]--></g></svg>